<svg xmlns="http://www.w3.org/2000/svg" viewBox="0 0 90 90"><defs><style>.cls-1{isolation:isolate;}.cls-2{fill:#50c5ff;}.cls-3{fill:#46b3f7;}.cls-4,.cls-7{fill:#c7e2ef;}.cls-4{mix-blend-mode:multiply;}.cls-5{fill:#428ffa;}.cls-6{fill:#eaf4fe;}.cls-8{fill:#575195;}.cls-9{fill:#f4436c;}.cls-10{fill:#99c5f5;}</style></defs><g class="cls-1"><g id="Capa_1" data-name="Capa 1"><path class="cls-2" d="M77.75,15.33V69.9a.93.93,0,0,1-.92.93H26.9a.94.94,0,0,1-1-.93V3.52a.94.94,0,0,1,1-.93H64.19l7.06,6.63Z"/><path class="cls-3" d="M66.76,29.38V70.83H26.9a.94.94,0,0,1-1-.93V16.64H53.2l7.06,6.63Z"/><polygon class="cls-4" points="77.75 15.33 77.75 28.04 64.14 15.38 71.25 9.22 77.75 15.33"/><polygon class="cls-5" points="77.75 15.33 77.75 15.38 64.14 15.38 64.14 2.6 64.19 2.6 77.75 15.33"/><path class="cls-6" d="M63,31.45V86a.93.93,0,0,1-.92.93H12.15a.94.94,0,0,1-1-.93V19.64a.94.94,0,0,1,1-.93h37.3l7,6.63Z"/><polygon class="cls-7" points="63.01 31.45 63.01 44.16 49.4 31.49 56.5 25.33 63.01 31.45"/><polygon class="cls-8" points="63.01 31.45 63.01 31.49 49.4 31.49 49.4 18.71 49.45 18.71 63.01 31.45"/><rect class="cls-9" x="18.9" y="42.58" width="27.16" height="2.4"/><rect class="cls-10" x="18.9" y="47.18" width="35.68" height="2.31"/><rect class="cls-10" x="18.9" y="51.73" width="35.68" height="2.31"/><rect class="cls-10" x="18.9" y="56.35" width="35.68" height="2.17"/><rect class="cls-10" x="18.9" y="60.91" width="35.68" height="2.17"/><g id="path-1"><path class="cls-9" d="M71.67,66.29h7a.19.19,0,0,0,.14-.31L69.08,54.66a1.66,1.66,0,0,0-2.35,0L57,66a.19.19,0,0,0,.15.31h7.47a.2.2,0,0,1,.2.2c0,4.91-5,9.36-9.87,8.47a15.24,15.24,0,0,1-7.45-3.78.2.2,0,0,0-.32.21A12.57,12.57,0,0,0,58.84,79,12.39,12.39,0,0,0,71.48,66.48.2.2,0,0,1,71.67,66.29Z"/></g></g></g></svg>